<svg width="64" height="64" viewBox="0 0 64 64" fill="none" xmlns="http://www.w3.org/2000/svg">
<g clip-path="url(#clip0_194_3)">
<path d="M54.1787 11.4525C50.0996 9.56486 45.7253 8.17414 41.1517 7.37761C41.0684 7.36224 40.9852 7.40065 40.9423 7.47749C40.3798 8.48659 39.7566 9.80305 39.3202 10.8378C34.4011 10.095 29.5072 10.095 24.6889 10.8378C24.2524 9.78005 23.6066 8.48659 23.0415 7.47749C22.9986 7.40322 22.9154 7.3648 22.8321 7.37761C18.2611 8.17159 13.8868 9.56232 9.80516 11.4525C9.76982 11.4679 9.73954 11.4935 9.71944 11.5268C1.42238 24.028 -0.850534 36.222 0.26448 48.2649C0.269525 48.3238 0.30232 48.3801 0.347728 48.416C5.82189 52.4703 11.1246 54.9317 16.3287 56.5631C16.412 56.5888 16.5003 56.558 16.5533 56.4889C17.7843 54.7934 18.8817 53.0057 19.8226 51.1257C19.8781 51.0156 19.8251 50.885 19.7116 50.8414C17.971 50.1755 16.3136 49.3636 14.7193 48.4416C14.5932 48.3673 14.5831 48.1854 14.6991 48.0983C15.0346 47.8448 15.3702 47.581 15.6905 47.3146C15.7485 47.266 15.8293 47.2557 15.8974 47.2864C26.3714 52.1092 37.7108 52.1092 48.0612 47.2864C48.1294 47.2531 48.2101 47.2634 48.2706 47.312C48.5911 47.5784 48.9266 47.8448 49.2646 48.0983C49.3806 48.1854 49.373 48.3673 49.2469 48.4416C47.6526 49.3815 45.9952 50.1755 44.252 50.8389C44.1385 50.8824 44.0881 51.0156 44.1436 51.1257C45.1047 53.003 46.2021 54.7908 47.4104 56.4863C47.4609 56.558 47.5516 56.5888 47.6349 56.5631C52.8644 54.9317 58.167 52.4703 63.6411 48.416C63.6891 48.3801 63.7194 48.3263 63.7244 48.2674C65.0589 34.3446 61.4893 22.2506 54.2619 11.5293C54.2442 11.4935 54.214 11.4679 54.1787 11.4525ZM21.3867 40.932C18.2333 40.932 15.635 38.0123 15.635 34.4266C15.635 30.8409 18.1829 27.9211 21.3867 27.9211C24.6157 27.9211 27.1888 30.8665 27.1383 34.4266C27.1383 38.0123 24.5904 40.932 21.3867 40.932ZM42.6527 40.932C39.4994 40.932 36.901 38.0123 36.901 34.4266C36.901 30.8409 39.4489 27.9211 42.6527 27.9211C45.8817 27.9211 48.4548 30.8665 48.4044 34.4266C48.4044 38.0123 45.8817 40.932 42.6527 40.932Z" fill="#5865F2"/>
</g>
<defs>
<clipPath id="clip0_194_3">
<rect width="64" height="50" fill="white" transform="translate(0 7)"/>
</clipPath>
</defs>
</svg>
