<svg width="42" height="41" viewBox="0 0 42 41" fill="none" xmlns="http://www.w3.org/2000/svg">
<circle cx="21.29" cy="20.5" r="20.5" fill="#F5F5F5"/>
<path fill-rule="evenodd" clip-rule="evenodd" d="M27.6853 21.8901C28.4294 21.8047 28.8015 21.6948 28.8015 21.5606V13.6873H31.0519C31.2799 13.6873 31.4599 13.4005 31.592 12.8268C31.724 12.2531 31.79 11.6427 31.79 10.9958C31.79 10.3488 31.754 9.85446 31.682 9.51268C31.622 9.17089 31.502 9 31.3219 9H21.5822C21.3421 9 21.1501 9.27465 21.006 9.82394C20.862 10.361 20.79 10.9714 20.79 11.6549C20.79 12.3263 20.838 12.8329 20.934 13.1746C21.0301 13.5164 21.1441 13.6873 21.2761 13.6873H23.7786V17.2437C23.453 17.0812 22.956 17 22.2876 17C21.345 17 20.4649 17.144 19.6471 17.432C18.8431 17.7063 18.4412 18.0149 18.4412 18.3577V22.4514H16.5908V17.9257C16.5908 17.3086 15.9324 17 14.6156 17C13.6731 17 12.7998 17.144 11.9959 17.432C11.192 17.7063 10.79 18.0149 10.79 18.3577V31.0092C10.79 31.2149 10.9078 31.3657 11.1435 31.4617C11.393 31.5577 11.9405 31.6057 12.786 31.6057C13.6453 31.6057 14.4908 31.5509 15.3225 31.4412C16.168 31.3314 16.5908 31.1874 16.5908 31.0092V26.2983H18.4412V31.0092C18.4412 31.2149 18.559 31.3657 18.7946 31.4617C19.0441 31.5577 19.5916 31.6057 20.4371 31.6057C21.2827 31.6057 22.1282 31.5509 22.9737 31.4412C23.8192 31.3314 24.2419 31.1874 24.2419 31.0092V21.9446C24.4919 21.9815 24.9016 22 25.4709 22C26.215 22 26.9531 21.9634 27.6853 21.8901Z" fill="#161924"/>
</svg>
