<svg width="32" height="32" viewBox="0 0 32 32" fill="none" xmlns="http://www.w3.org/2000/svg">
<path fill-rule="evenodd" clip-rule="evenodd" d="M0 16C0 7.16344 7.16344 0 16 0C24.8366 0 32 7.16344 32 16C32 24.8366 24.8366 32 16 32C7.16344 32 0 24.8366 0 16ZM17.4211 14.5789H10V22H17.4211V14.5789ZM10 11.5789H7V14.5789V22V25H10H17.4211H20.4211V22V20.2368H24H25.5V18.7368V8V6.5H24H12.3684H10.8684V8V11.5789H10ZM20.4211 17.2368H22.5V9.5H13.8684V11.5789H17.4211H20.4211V14.5789V17.2368Z" fill="url(#paint0_linear_164_9)"/>
<defs>
<linearGradient id="paint0_linear_164_9" x1="16" y1="0" x2="16" y2="32" gradientUnits="userSpaceOnUse">
<stop stop-color="#E8E8E8"/>
<stop offset="1" stop-color="#CFCFCF"/>
</linearGradient>
</defs>
</svg>
