<svg width="32" height="32" viewBox="0 0 32 32" fill="none" xmlns="http://www.w3.org/2000/svg">
<g clip-path="url(#clip0_9_160)">
<path d="M31.3959 14.574L17.4239 0.604002C17.2326 0.412606 17.0055 0.260776 16.7555 0.157188C16.5055 0.0535995 16.2375 0.000282288 15.9669 0.000282288C15.6963 0.000282288 15.4284 0.0535995 15.1784 0.157188C14.9284 0.260776 14.7012 0.412606 14.5099 0.604002L11.6099 3.504L15.2899 7.184C15.7239 7.03582 16.1909 7.01264 16.6374 7.1171C17.084 7.22156 17.4921 7.44946 17.8154 7.77479C18.1386 8.10011 18.3639 8.50976 18.4655 8.95697C18.5671 9.40419 18.5409 9.87096 18.3899 10.304L21.9359 13.852C22.4605 13.6673 23.0324 13.6667 23.5574 13.8504C24.0824 14.0341 24.5292 14.3911 24.8242 14.8626C25.1192 15.3341 25.2449 15.892 25.1805 16.4445C25.1161 16.9969 24.8655 17.511 24.4699 17.902C24.0695 18.3049 23.5416 18.5563 22.9764 18.6132C22.4112 18.6701 21.8438 18.529 21.3711 18.214C20.8984 17.899 20.5498 17.4297 20.3847 16.8862C20.2196 16.3427 20.2483 15.7587 20.4659 15.234L17.1599 11.926V20.632C17.6624 20.8807 18.0645 21.2942 18.2991 21.8035C18.5338 22.3127 18.5868 22.887 18.4493 23.4306C18.3119 23.9742 17.9923 24.4543 17.5438 24.7908C17.0953 25.1273 16.545 25.3 15.9846 25.28C15.4243 25.2599 14.8877 25.0485 14.4644 24.6808C14.041 24.3132 13.7565 23.8115 13.6581 23.2595C13.5598 22.7075 13.6537 22.1384 13.924 21.6472C14.1944 21.156 14.6249 20.7723 15.1439 20.56V11.774C14.8445 11.6513 14.5723 11.4706 14.3431 11.2422C14.1138 11.0138 13.9321 10.7423 13.8082 10.4434C13.6844 10.1444 13.621 9.8239 13.6216 9.50032C13.6223 9.17673 13.6869 8.85647 13.8119 8.558L10.1859 4.93L0.605917 14.51C0.414521 14.7013 0.262691 14.9284 0.159103 15.1784C0.0555145 15.4284 0.00219727 15.6964 0.00219727 15.967C0.00219727 16.2376 0.0555145 16.5056 0.159103 16.7556C0.262691 17.0056 0.414521 17.2327 0.605917 17.424L14.5779 31.396C14.7692 31.5874 14.9964 31.7392 15.2464 31.8428C15.4964 31.9464 15.7643 31.9997 16.0349 31.9997C16.3055 31.9997 16.5735 31.9464 16.8235 31.8428C17.0735 31.7392 17.3006 31.5874 17.4919 31.396L31.3979 17.49C31.784 17.1034 32.0008 16.5794 32.0008 16.033C32.0008 15.4866 31.784 14.9626 31.3979 14.576" fill="url(#paint0_linear_9_160)"/>
</g>
<defs>
<linearGradient id="paint0_linear_9_160" x1="16.0015" y1="0.000282288" x2="16.0015" y2="31.9997" gradientUnits="userSpaceOnUse">
<stop stop-color="#E8E8E8"/>
<stop offset="1" stop-color="#CFCFCF"/>
</linearGradient>
<clipPath id="clip0_9_160">
<rect width="32" height="32" fill="white"/>
</clipPath>
</defs>
</svg>
