<svg width="400" height="400" viewBox="0 0 400 400" fill="none" xmlns="http://www.w3.org/2000/svg">
<rect width="400" height="400" fill="#E6E6E6"/>
<path d="M44.799 0H0V44.799L44.799 0Z" fill="#070707"/>
<path fill-rule="evenodd" clip-rule="evenodd" d="M0 177.169V400H400V196.004L288.88 307.125L200.002 399.685L193.274 271.307L192.8 270.833L193.227 270.406L179.056 0H177.169L0 177.169ZM111.2 328.8C111.2 350.891 93.2914 368.8 71.2 368.8C49.1086 368.8 31.2 350.891 31.2 328.8C31.2 306.709 49.1086 288.8 71.2 288.8C93.2914 288.8 111.2 306.709 111.2 328.8Z" fill="#070707"/>
<path d="M272.784 0L282.288 181.345L400 63.6329V0H272.784Z" fill="#070707"/>
</svg>
